<svg xmlns="http://www.w3.org/2000/svg" xmlns:xlink="http://www.w3.org/1999/xlink" width="16" height="16" viewBox="0 0 16 16">
    <defs>
        <circle id="a" cx="8" cy="8" r="8"/>
    </defs>
    <g fill="none" fill-rule="evenodd">
        <use fill="#354052" xlink:href="#a"/>
        <circle cx="8" cy="8" r="7.5" stroke="#354052"/>
        <path fill="#FFF" d="M9.029 4.736a.816.816 0 1 0-1.148 1.16.816.816 0 0 0 1.148-1.16zm-.667 5.777a.572.572 0 0 1-.35.237.138.138 0 0 1-.097-.031.117.117 0 0 1-.034-.09c.026-.152.07-.3.132-.442l.61-1.664c.116-.277.19-.57.216-.869a.742.742 0 0 0-.242-.587.994.994 0 0 0-.68-.214c-.825 0-1.464.49-1.917 1.47h.505c.243-.457.453-.685.632-.685a.104.104 0 0 1 .121.12 1.126 1.126 0 0 1-.073.275l-.632 1.816a3.077 3.077 0 0 0-.206.832.748.748 0 0 0 .248.611c.214.152.475.225.737.206.808 0 1.436-.48 1.886-1.438h-.532a2.165 2.165 0 0 1-.324.453z"/>
    </g>
</svg>
