<svg xmlns="http://www.w3.org/2000/svg" width="16" height="16" viewBox="0 0 16 16">
    <path fill="#354052" fill-rule="evenodd" d="M5.017 13.207l-1.519.933a.741.741 0 0 1-.798-.126l-.714-.714a.74.74 0 0 1-.126-.798l.933-1.519a5.964 5.964 0 0 1-.585-1.41L.475 9.157A.741.741 0 0 1 0 8.505v-1.01a.74.74 0 0 1 .475-.653l1.733-.414c.135-.5.333-.973.585-1.411L1.86 3.498a.741.741 0 0 1 .126-.798l.714-.714a.74.74 0 0 1 .798-.126l1.519.933c.438-.252.912-.45 1.41-.585L6.843.475A.741.741 0 0 1 7.495 0h1.01a.74.74 0 0 1 .653.475l.414 1.733c.5.135.973.333 1.411.585l1.519-.933a.741.741 0 0 1 .798.126l.714.714a.74.74 0 0 1 .126.798l-.933 1.519c.252.438.45.912.585 1.41l1.733.415a.741.741 0 0 1 .475.653v1.01a.74.74 0 0 1-.475.653l-1.733.414c-.135.5-.333.973-.585 1.411l.933 1.519a.741.741 0 0 1-.126.798l-.714.714a.74.74 0 0 1-.798.126l-1.519-.933c-.438.252-.912.45-1.41.585l-.415 1.733a.741.741 0 0 1-.653.475h-1.01a.74.74 0 0 1-.653-.475l-.414-1.733a5.964 5.964 0 0 1-1.411-.585zM8 10.5a2.5 2.5 0 1 0 0-5 2.5 2.5 0 0 0 0 5z"/>
</svg>
